<svg width="226" height="47" viewBox="0 0 226 47" fill="none" xmlns="http://www.w3.org/2000/svg">
<path d="M11.0695 46H21.2455V1.2H11.3255L11.1975 2.8C10.9415 6.512 9.21348 8.24 5.43748 8.432L0.125488 8.688V16.88H11.0695V46ZM52.635 46.64C66.587 46.64 77.019 36.784 77.019 23.6C77.019 10.48 66.587 0.559998 52.635 0.559998C38.683 0.559998 28.2505 10.48 28.2505 23.6C28.2505 36.784 38.683 46.64 52.635 46.64ZM52.635 37.104C44.891 37.104 39.451 31.536 39.451 23.6C39.451 15.728 44.891 10.16 52.635 10.16C60.379 10.16 65.819 15.728 65.819 23.6C65.819 31.536 60.379 37.104 52.635 37.104ZM106.697 46.64C120.649 46.64 131.081 36.784 131.081 23.6C131.081 10.48 120.649 0.559998 106.697 0.559998C92.745 0.559998 82.313 10.48 82.313 23.6C82.313 36.784 92.745 46.64 106.697 46.64ZM106.697 37.104C98.953 37.104 93.513 31.536 93.513 23.6C93.513 15.728 98.953 10.16 106.697 10.16C114.441 10.16 119.881 15.728 119.881 23.6C119.881 31.536 114.441 37.104 106.697 37.104ZM160.76 46.64C174.712 46.64 185.144 36.784 185.144 23.6C185.144 10.48 174.712 0.559998 160.76 0.559998C146.808 0.559998 136.376 10.48 136.376 23.6C136.376 36.784 146.808 46.64 160.76 46.64ZM160.76 37.104C153.016 37.104 147.576 31.536 147.576 23.6C147.576 15.728 153.016 10.16 160.76 10.16C168.504 10.16 173.944 15.728 173.944 23.6C173.944 31.536 168.504 37.104 160.76 37.104ZM225.965 19.824H213.677V7.664H204.909V19.824H192.685V28.72H204.909V40.88H213.677V28.72H225.965V19.824Z" fill="#050038"/>
</svg>
