<svg width="113" height="47" viewBox="0 0 113 47" fill="none" xmlns="http://www.w3.org/2000/svg">
<path d="M0.288025 46H10.912V1.2H0.288025V46ZM39.634 46.64C51.858 46.64 59.346 40.496 59.346 31.152C59.346 23.472 54.482 19.056 45.33 17.904L37.01 16.816C34.77 16.496 32.018 15.728 32.018 12.912C32.018 10.288 34.322 8.624 37.65 8.624C41.362 8.624 43.666 10.288 44.434 13.616L55.762 13.552C55.122 5.552 48.274 0.559998 38.034 0.559998C27.602 0.559998 21.33 5.808 21.33 14.064C21.33 20.912 25.554 24.88 33.938 25.968L43.09 27.12C45.586 27.504 48.21 28.4 48.21 31.792C48.21 35.568 45.01 37.808 39.826 37.808C33.426 37.808 29.586 34.416 29.202 28.336H17.17C17.618 38.832 25.81 46.64 39.634 46.64ZM87.947 46.64C101.899 46.64 112.331 36.784 112.331 23.6C112.331 10.48 101.899 0.559998 87.947 0.559998C73.995 0.559998 63.563 10.48 63.563 23.6C63.563 36.784 73.995 46.64 87.947 46.64ZM87.947 37.104C80.203 37.104 74.763 31.536 74.763 23.6C74.763 15.728 80.203 10.16 87.947 10.16C95.691 10.16 101.131 15.728 101.131 23.6C101.131 31.536 95.691 37.104 87.947 37.104Z" fill="#050038"/>
</svg>
