<svg width="173" height="47" viewBox="0 0 173 47" fill="none" xmlns="http://www.w3.org/2000/svg">
<path d="M11.632 46H21.808V1.2H11.888L11.76 2.8C11.504 6.512 9.776 8.24 6 8.432L0.688004 8.688V16.88H11.632V46ZM53.197 46.64C67.149 46.64 77.581 36.784 77.581 23.6C77.581 10.48 67.149 0.559998 53.197 0.559998C39.245 0.559998 28.813 10.48 28.813 23.6C28.813 36.784 39.245 46.64 53.197 46.64ZM53.197 37.104C45.453 37.104 40.013 31.536 40.013 23.6C40.013 15.728 45.453 10.16 53.197 10.16C60.941 10.16 66.381 15.728 66.381 23.6C66.381 31.536 60.941 37.104 53.197 37.104ZM107.26 46.64C121.212 46.64 131.644 36.784 131.644 23.6C131.644 10.48 121.212 0.559998 107.26 0.559998C93.308 0.559998 82.876 10.48 82.876 23.6C82.876 36.784 93.308 46.64 107.26 46.64ZM107.26 37.104C99.516 37.104 94.076 31.536 94.076 23.6C94.076 15.728 99.516 10.16 107.26 10.16C115.004 10.16 120.444 15.728 120.444 23.6C120.444 31.536 115.004 37.104 107.26 37.104ZM172.465 19.824H160.177V7.664H151.409V19.824H139.185V28.72H151.409V40.88H160.177V28.72H172.465V19.824Z" fill="#050038"/>
</svg>
