<svg width="147" height="47" viewBox="0 0 147 47" fill="none" xmlns="http://www.w3.org/2000/svg">
<path d="M19.76 0.559998C8.56 0.559998 0.944 7.536 0.944 17.328C0.944 26.544 7.728 33.008 16.88 33.008C18.224 33.008 19.376 32.816 20.464 32.496L8.112 46H20.272L31.152 33.2C33.904 29.936 38.64 24.432 38.64 17.008C38.64 7.408 30.96 0.559998 19.76 0.559998ZM19.824 25.2C15.216 25.2 12.016 22.064 12.016 17.456C12.016 12.848 15.28 9.712 19.824 9.712C24.496 9.712 27.632 12.912 27.632 17.456C27.632 22 24.496 25.2 19.824 25.2ZM62.51 0.559998C51.31 0.559998 43.694 7.536 43.694 17.328C43.694 26.544 50.478 33.008 59.63 33.008C60.974 33.008 62.126 32.816 63.214 32.496L50.862 46H63.022L73.902 33.2C76.654 29.936 81.39 24.432 81.39 17.008C81.39 7.408 73.71 0.559998 62.51 0.559998ZM62.574 25.2C57.966 25.2 54.766 22.064 54.766 17.456C54.766 12.848 58.03 9.712 62.574 9.712C67.246 9.712 70.382 12.912 70.382 17.456C70.382 22 67.246 25.2 62.574 25.2ZM99.768 24.688C106.936 24.688 112.312 19.504 112.312 12.656C112.312 5.744 106.936 0.559998 99.768 0.559998C92.6 0.559998 87.288 5.744 87.288 12.656C87.288 19.504 92.6 24.688 99.768 24.688ZM95.288 46H105.656L138.552 1.2H128.12L95.288 46ZM99.768 17.008C97.336 17.008 95.608 15.216 95.608 12.656C95.608 10.032 97.336 8.24 99.768 8.24C102.264 8.24 103.992 10.032 103.992 12.656C103.992 15.216 102.264 17.008 99.768 17.008ZM134.008 46.64C141.176 46.64 146.552 41.52 146.552 34.608C146.552 27.76 141.176 22.576 134.008 22.576C126.904 22.576 121.528 27.76 121.528 34.608C121.528 41.52 126.904 46.64 134.008 46.64ZM134.008 39.024C131.576 39.024 129.848 37.168 129.848 34.608C129.848 32.048 131.576 30.192 134.008 30.192C136.504 30.192 138.232 32.048 138.232 34.608C138.232 37.168 136.504 39.024 134.008 39.024Z" fill="#050038"/>
</svg>
